HIERARCHY
ROOT Hips
{
	OFFSET 0.00000 0.00000 0.00000
	CHANNELS 6 Xposition Yposition Zposition Zrotation Yrotation Xrotation 
	JOINT LHipJoint
	{
		OFFSET 0 0 0
		CHANNELS 3 Zrotation Yrotation Xrotation
		JOINT LeftUpLeg
		{
			OFFSET 1.84395 -1.68683 0.74144
			CHANNELS 3 Zrotation Yrotation Xrotation
			JOINT LeftLeg
			{
				OFFSET 2.27037 -6.23779 0.00000
				CHANNELS 3 Zrotation Yrotation Xrotation
				JOINT LeftFoot
				{
					OFFSET 2.56918 -7.05877 0.00000
					CHANNELS 3 Zrotation Yrotation Xrotation
					JOINT LeftToeBase
					{
						OFFSET 0.22276 -0.61202 1.71784
						CHANNELS 3 Zrotation Yrotation Xrotation
						End Site
						{
							OFFSET 0.00000 -0.00000 0.91613
						}
					}
				}
			}
		}
	}
	JOINT RHipJoint
	{
		OFFSET 0 0 0
		CHANNELS 3 Zrotation Yrotation Xrotation
		JOINT RightUpLeg
		{
			OFFSET -1.76833 -1.68684 0.74144
			CHANNELS 3 Zrotation Yrotation Xrotation
			JOINT RightLeg
			{
				OFFSET -2.49360 -6.85110 0.00000
				CHANNELS 3 Zrotation Yrotation Xrotation
				JOINT RightFoot
				{
					OFFSET -2.55538 -7.02085 0.00000
					CHANNELS 3 Zrotation Yrotation Xrotation
					JOINT RightToeBase
					{
						OFFSET -0.21516 -0.59115 1.68050
						CHANNELS 3 Zrotation Yrotation Xrotation
						End Site
						{
							OFFSET -0.00000 -0.00000 0.89604
						}
					}
				}
			}
		}
	}
	JOINT LowerBack
	{
		OFFSET 0 0 0
		CHANNELS 3 Zrotation Yrotation Xrotation
		JOINT Spine
		{
			OFFSET 0.06382 1.72312 -0.19613
			CHANNELS 3 Zrotation Yrotation Xrotation
			JOINT Spine1
			{
				OFFSET -0.00055 1.73507 0.23859
				CHANNELS 3 Zrotation Yrotation Xrotation
				JOINT Neck
				{
					OFFSET 0 0 0
					CHANNELS 3 Zrotation Yrotation Xrotation
					JOINT Neck1
					{
						OFFSET 0.03638 1.65562 0.09633
						CHANNELS 3 Zrotation Yrotation Xrotation
						JOINT Head
						{
							OFFSET 0.06388 1.62807 -0.32386
							CHANNELS 3 Zrotation Yrotation Xrotation
							End Site
							{
								OFFSET 0.00995 1.67644 -0.12021
							}
						}
					}
				}
				JOINT LeftShoulder
				{
					OFFSET 0 0 0
					CHANNELS 3 Zrotation Yrotation Xrotation
					JOINT LeftArm
					{
						OFFSET 3.09648 1.42991 0.28122
						CHANNELS 3 Zrotation Yrotation Xrotation
						JOINT LeftForeArm
						{
							OFFSET 5.11878 -0.00000 -0.00000
							CHANNELS 3 Zrotation Yrotation Xrotation
							JOINT LeftHand
							{
								OFFSET 3.59971 -0.00000 0.00000
								CHANNELS 3 Zrotation Yrotation Xrotation
								JOINT LeftFingerBase
								{
									OFFSET 0 0 0
									CHANNELS 3 Zrotation Yrotation Xrotation
									JOINT LeftHandIndex1
									{
										OFFSET 0.62877 -0.00000 0.00000
										CHANNELS 3 Zrotation Yrotation Xrotation
										End Site
										{
											OFFSET 0.50693 -0.00000 0.00000
										}
									}
								}
								JOINT LThumb
								{
									OFFSET 0 0 0
									CHANNELS 3 Zrotation Yrotation Xrotation
									End Site
									{
										OFFSET 0.51467 -0.00000 0.51467
									}
								}
							}
						}
					}
				}
				JOINT RightShoulder
				{
					OFFSET 0 0 0
					CHANNELS 3 Zrotation Yrotation Xrotation
					JOINT RightArm
					{
						OFFSET -3.33565 1.14597 0.05047
						CHANNELS 3 Zrotation Yrotation Xrotation
						JOINT RightForeArm
						{
							OFFSET -5.49020 -0.00000 0.00000
							CHANNELS 3 Zrotation Yrotation Xrotation
							JOINT RightHand
							{
								OFFSET -3.20659 -0.00000 -0.00000
								CHANNELS 3 Zrotation Yrotation Xrotation
								JOINT RightFingerBase
								{
									OFFSET 0 0 0
									CHANNELS 3 Zrotation Yrotation Xrotation
									JOINT RightHandIndex1
									{
										OFFSET -0.69188 -0.00000 0.00000
										CHANNELS 3 Zrotation Yrotation Xrotation
										End Site
										{
											OFFSET -0.55781 -0.00000 0.00000
										}
									}
								}
								JOINT RThumb
								{
									OFFSET 0 0 0
									CHANNELS 3 Zrotation Yrotation Xrotation
									End Site
									{
										OFFSET -0.56633 -0.00000 0.56633
									}
								}
							}
						}
					}
				}
			}
		}
	}
}
MOTION
Frames: 9
Frame Time: .0083333
-0.5559 17.8917 7.8883 -11.5735 11.9834 24.3734 0.0000 0.0000 0.0000 10.2100 -48.7027 -10.0468 0.0072 -0.5494 -1.5098 -7.4729 43.1984 -30.7391 0.0608 1.5916 4.3783 0.0000 0.0000 0.0000 22.0438 36.8417 -10.2045 -0.0000 -0.0297 0.0815 2.5145 -30.4057 -27.8412 -0.7324 -5.4676 15.2473 5.2503 3.0863 21.5090 -2.5146 4.9036 6.8088 -6.8733 2.4572 -3.8490 0.1086 -1.9397 -16.5590 7.7333 -4.0529 14.7851 2.0683 -1.1893 7.4543 -0.0000 0.0000 0.0000 -32.9222 -51.0140 46.0119 34.6618 -44.5691 -14.5755 -0.0000 0.0000 -73.3775 7.9138 -12.2163 -1.6848 -7.1250 0.0000 -0.0000 -13.3902 17.8398 8.8909 -0.0000 0.0000 0.0000 43.5986 58.2046 56.1822 -34.3812 44.3652 -14.3790 0.0000 -0.0000 -40.1957 7.3310 -28.0877 -3.4663 7.1250 -0.0000 -0.0000 38.8741 -53.6215 -9.3404
-0.5600 17.8850 7.8813 -11.6269 12.1493 24.4888 0.0000 0.0000 0.0000 10.6221 -48.9338 -10.3143 0.0075 -0.5603 -1.5397 -7.5324 43.3206 -30.8305 0.0610 1.5931 4.3824 0.0000 0.0000 0.0000 21.9908 36.7513 -10.4690 -0.0001 -0.0479 0.1317 2.4491 -30.2068 -27.8991 -0.7498 -5.5307 15.4287 5.1890 2.9793 21.6709 -2.4183 4.7658 6.7798 -6.7182 2.3804 -3.9992 0.5152 -1.8604 -16.6993 7.2912 -3.9409 14.3976 1.8659 -1.1645 7.3287 -0.0000 -0.0000 0.0000 -32.7218 -51.1355 45.6779 34.8932 -44.7357 -14.7381 -0.0000 0.0000 -73.3435 8.1883 -11.8919 -1.6984 -7.1250 0.0000 -0.0000 -13.2194 18.1457 8.6793 -0.0000 -0.0000 0.0000 42.8406 58.6370 56.4699 -34.8591 44.7113 -14.7141 0.0000 -0.0000 -40.6413 7.4063 -28.4410 -3.5425 7.1250 -0.0000 -0.0000 39.2257 -53.8889 -9.7245
-0.5661 17.8784 7.8723 -11.6796 12.3562 24.6302 0.0000 0.0000 0.0000 11.1391 -49.4014 -10.5959 0.0076 -0.5614 -1.5426 -7.6215 43.5430 -31.2005 0.0647 1.6410 4.5146 0.0000 0.0000 0.0000 21.9148 36.7469 -10.7356 -0.0001 -0.0538 0.1479 2.4104 -30.1357 -28.0540 -0.7648 -5.5846 15.5836 4.9868 2.9164 21.7493 -2.2027 4.6583 6.8432 -6.3467 2.3243 -4.0251 0.6907 -1.8380 -16.8992 6.8672 -3.8548 13.9531 1.7049 -1.1640 7.2005 -0.0000 0.0000 0.0000 -32.5712 -51.3822 45.0275 35.2200 -44.9686 -14.9686 -0.0000 0.0000 -73.4854 8.2161 -11.4970 -1.6485 -7.1250 0.0000 -0.0000 -13.2224 18.5324 8.5649 -0.0000 0.0000 0.0000 43.7515 59.4586 55.7832 -34.0469 44.1195 -14.1457 0.0000 -0.0000 -40.5840 10.1748 -28.6271 -4.9146 7.1250 -0.0000 -0.0000 41.8230 -53.5215 -10.1517
-0.5724 17.8729 7.8613 -11.7285 12.5551 24.7728 0.0000 0.0000 0.0000 11.6732 -49.9811 -10.8318 0.0079 -0.5730 -1.5747 -7.7489 43.8636 -31.7579 0.0715 1.7256 4.7480 0.0000 0.0000 0.0000 21.8641 36.6299 -11.0296 -0.0001 -0.0471 0.1295 2.3817 -30.0347 -28.0461 -0.7636 -5.5803 15.5715 4.9215 2.8309 22.0641 -2.1118 4.5516 6.8552 -6.2107 2.2630 -4.2014 0.8516 -1.8261 -17.1835 6.5967 -3.8159 13.5780 1.5920 -1.1684 7.1159 -0.0000 0.0000 0.0000 -32.1507 -51.7312 44.2479 35.5586 -45.2069 -15.2084 -0.0000 0.0000 -73.4365 8.2325 -11.1035 -1.5960 -7.1250 0.0000 -0.0000 -13.2341 18.9183 8.4561 -0.0000 0.0000 0.0000 46.8182 60.3873 55.2741 -32.2939 42.7802 -12.9400 0.0000 -0.0000 -37.7785 12.9797 -28.2918 -6.2346 7.1250 -0.0000 -0.0000 43.9658 -52.7511 -9.9312
-0.5789 17.8678 7.8479 -11.7437 12.6682 24.9680 0.0000 0.0000 0.0000 12.2044 -50.4524 -11.1499 0.0086 -0.5995 -1.6475 -7.9577 44.2822 -32.1167 0.0692 1.6971 4.6693 0.0000 0.0000 0.0000 21.7314 36.5919 -11.3585 -0.0000 -0.0326 0.0897 2.3600 -29.9538 -28.0297 -0.7840 -5.6527 15.7800 4.8010 2.7664 22.4226 -2.0599 4.4581 6.8928 -6.0896 2.2093 -4.3702 0.8198 -1.8056 -17.3988 6.5736 -3.7442 12.9732 1.5947 -1.1528 6.9530 0.0000 -0.0000 0.0000 -31.5821 -52.2997 43.3419 35.6693 -45.2842 -15.2870 -0.0000 0.0000 -73.1272 8.4260 -10.7196 -1.5783 -7.1250 0.0000 -0.0000 -13.1228 19.2877 8.2700 0.0000 -0.0000 0.0000 44.1068 60.7230 55.0380 -33.7316 43.8849 -13.9267 0.0000 -0.0000 -39.2734 11.4513 -28.5118 -5.5229 7.1250 -0.0000 -0.0000 42.8365 -53.1975 -10.1048
-0.5859 17.8632 7.8306 -11.7338 12.7772 25.2061 0.0000 0.0000 0.0000 12.8011 -50.8378 -11.6464 0.0089 -0.6095 -1.6749 -8.1585 44.6578 -32.3576 0.0674 1.6750 4.6082 0.0000 0.0000 0.0000 21.5623 36.5589 -11.7111 -0.0000 -0.0036 0.0098 2.3238 -29.8377 -28.0505 -0.8371 -5.8366 16.3110 4.6607 2.6812 22.8548 -2.0598 4.3322 6.9184 -6.0111 2.1382 -4.5896 0.7862 -1.7917 -17.4484 6.7123 -3.6783 12.0127 1.6493 -1.1396 6.6520 0.0000 -0.0000 0.0000 -30.6624 -52.8259 42.3532 35.7133 -45.3148 -15.3183 -0.0000 0.0000 -72.7130 8.8555 -10.2236 -1.5840 -7.1250 0.0000 -0.0000 -12.8531 19.7590 7.9519 0.0000 -0.0000 0.0000 43.2870 61.2657 54.9896 -34.2888 44.2975 -14.3144 0.0000 -0.0000 -38.2548 10.1619 -28.3477 -4.8646 7.1250 -0.0000 -0.0000 41.5811 -53.3069 -9.8357
-0.5946 17.8597 7.8100 -11.7480 12.9793 25.4170 0.0000 0.0000 0.0000 13.4896 -51.0785 -12.2925 0.0085 -0.5959 -1.6376 -8.2016 44.7563 -32.5164 0.0742 1.7569 4.8343 0.0000 0.0000 0.0000 21.4684 36.4520 -12.0542 -0.0000 0.0254 -0.0698 2.2573 -29.6412 -28.1347 -0.9133 -6.0896 17.0445 4.5781 2.5698 23.3680 -2.0699 4.1868 6.9596 -5.9753 2.0577 -4.8284 1.0993 -1.7849 -17.3330 6.5888 -3.6436 10.8340 1.5604 -1.1590 6.2445 0.0000 0.0000 0.0000 -29.2659 -53.1899 41.2454 35.8801 -45.4305 -15.4370 -0.0000 0.0000 -72.4675 9.5049 -9.5095 -1.5845 -7.1250 0.0000 -0.0000 -12.4405 20.4395 7.4889 0.0000 0.0000 0.0000 43.4535 61.9913 54.3537 -34.2903 44.2987 -14.3154 0.0000 -0.0000 -37.8264 10.7544 -28.0847 -5.1096 7.1250 -0.0000 -0.0000 41.8817 -52.9947 -9.5777
-0.5987 17.8511 7.7829 -11.7991 13.2586 25.7968 0.0000 0.0000 0.0000 14.5513 -51.0350 -13.5260 0.0070 -0.5402 -1.4843 -8.1247 44.5914 -32.2958 0.0750 1.7665 4.8607 0.0000 0.0000 0.0000 21.1823 36.3628 -12.8118 -0.0000 0.0064 -0.0175 2.2358 -29.5444 -28.0798 -0.9234 -6.1221 17.1392 4.6139 2.4378 23.5758 -2.0227 4.0348 7.0738 -5.9152 1.9861 -4.8286 1.2763 -1.7660 -17.2410 6.4422 -3.5614 9.7077 1.4926 -1.1618 5.8606 0.0000 0.0000 0.0000 -27.6135 -53.6115 39.9756 36.0319 -45.5351 -15.5452 -0.0000 0.0000 -72.6280 10.4524 -8.8647 -1.6284 -7.1250 0.0000 -0.0000 -11.8078 21.0445 6.9260 0.0000 0.0000 0.0000 42.4682 62.8442 52.9240 -34.4586 44.4216 -14.4331 0.0000 -0.0000 -38.2319 11.9949 -28.0084 -5.6977 7.1250 -0.0000 -0.0000 42.8900 -52.7118 -9.5570
-0.5960 17.8383 7.7499 -11.8658 13.5708 26.3550 0.0000 0.0000 0.0000 15.9479 -50.9974 -15.1958 0.0050 -0.4549 -1.2499 -8.1162 44.5242 -31.9908 0.0701 1.7083 4.7000 0.0000 0.0000 0.0000 20.6564 36.3072 -13.9775 -0.0001 -0.0506 0.1391 2.2805 -29.6001 -27.8308 -0.8639 -5.9267 16.5718 4.8432 2.2684 23.6404 -2.0034 3.8721 7.1764 -5.9837 1.9130 -4.7536 1.3124 -1.7430 -17.2617 6.3122 -3.4557 8.6807 1.4556 -1.1515 5.5310 -0.0000 -0.0000 0.0000 -25.6017 -53.9790 38.7446 36.3649 -45.7625 -15.7834 -0.0000 0.0000 -73.3366 11.7938 -8.3246 -1.7315 -7.1250 0.0000 -0.0000 -10.8800 21.5348 6.2378 -0.0000 -0.0000 0.0000 40.2929 63.7052 50.6393 -34.8953 44.7372 -14.7396 0.0000 -0.0000 -39.5480 13.8961 -28.1707 -6.6619 7.1250 -0.0000 -0.0000 44.6427 -52.4940 -9.8265
